<svg width="202" height="44" viewBox="0 0 202 44" fill="none" xmlns="http://www.w3.org/2000/svg">
<path d="M12.96 33.32C10.6133 33.32 8.59733 32.8507 6.912 31.912C5.248 30.952 3.968 29.608 3.072 27.88C2.176 26.1307 1.728 24.072 1.728 21.704C1.728 19.9333 1.984 18.344 2.496 16.936C3.008 15.5067 3.744 14.2907 4.704 13.288C5.664 12.264 6.83733 11.4853 8.224 10.952C9.632 10.3973 11.2107 10.12 12.96 10.12C14.1333 10.12 15.2853 10.2693 16.416 10.568C17.5467 10.8667 18.5387 11.2933 19.392 11.848C19.84 12.1253 20.1387 12.4667 20.288 12.872C20.4373 13.256 20.4693 13.64 20.384 14.024C20.2987 14.3867 20.1173 14.696 19.84 14.952C19.584 15.208 19.2533 15.3573 18.848 15.4C18.464 15.4213 18.0373 15.2827 17.568 14.984C16.9067 14.5573 16.192 14.248 15.424 14.056C14.656 13.864 13.8773 13.768 13.088 13.768C11.5733 13.768 10.2933 14.0773 9.248 14.696C8.20267 15.3147 7.41333 16.2107 6.88 17.384C6.34667 18.5573 6.08 19.9973 6.08 21.704C6.08 23.3893 6.34667 24.8293 6.88 26.024C7.41333 27.2187 8.20267 28.1253 9.248 28.744C10.2933 29.3627 11.5733 29.672 13.088 29.672C13.8987 29.672 14.6987 29.576 15.488 29.384C16.2773 29.1707 17.024 28.8507 17.728 28.424C18.1973 28.1467 18.6133 28.0293 18.976 28.072C19.36 28.0933 19.68 28.2213 19.936 28.456C20.192 28.6907 20.3627 28.9893 20.448 29.352C20.5333 29.6933 20.512 30.056 20.384 30.44C20.256 30.8027 20 31.1227 19.616 31.4C18.7627 32.0187 17.7387 32.4987 16.544 32.84C15.3707 33.16 14.176 33.32 12.96 33.32ZM29.174 33.32C27.4033 33.32 26.07 32.8187 25.174 31.816C24.278 30.792 23.83 29.2987 23.83 27.336V12.2C23.83 11.5387 24.0007 11.0373 24.342 10.696C24.6833 10.3547 25.174 10.184 25.814 10.184C26.454 10.184 26.9447 10.3547 27.286 10.696C27.6487 11.0373 27.83 11.5387 27.83 12.2V27.144C27.83 28.1253 28.0327 28.8507 28.438 29.32C28.8647 29.7893 29.462 30.024 30.23 30.024C30.4007 30.024 30.5607 30.024 30.71 30.024C30.8593 30.0027 31.0087 29.9813 31.158 29.96C31.4567 29.9173 31.6593 30.0027 31.766 30.216C31.8727 30.408 31.926 30.8133 31.926 31.432C31.926 31.9653 31.8193 32.3813 31.606 32.68C31.3927 32.9787 31.0407 33.16 30.55 33.224C30.3367 33.2453 30.1127 33.2667 29.878 33.288C29.6433 33.3093 29.4087 33.32 29.174 33.32ZM66.4473 33.256C65.9139 33.256 65.4446 33.1173 65.0393 32.84C64.6553 32.5627 64.3353 32.136 64.0793 31.56L58.9913 19.752C58.7993 19.2827 58.7246 18.8453 58.7673 18.44C58.8313 18.0347 59.0233 17.7147 59.3433 17.48C59.6846 17.224 60.1433 17.096 60.7193 17.096C61.2099 17.096 61.6046 17.2133 61.9033 17.448C62.2019 17.6613 62.4686 18.0773 62.7033 18.696L67.0233 29.48H66.0633L70.5113 18.664C70.7459 18.0667 71.0126 17.6613 71.3113 17.448C71.6313 17.2133 72.0579 17.096 72.5913 17.096C73.0606 17.096 73.4339 17.224 73.7113 17.48C73.9886 17.7147 74.1593 18.0347 74.2233 18.44C74.2873 18.824 74.2126 19.2507 73.9993 19.72L68.8153 31.56C68.5806 32.136 68.2606 32.5627 67.8553 32.84C67.4713 33.1173 67.0019 33.256 66.4473 33.256ZM84.3858 33.32C82.6151 33.32 81.0898 32.9893 79.8098 32.328C78.5298 31.6667 77.5378 30.728 76.8338 29.512C76.1511 28.296 75.8098 26.856 75.8098 25.192C75.8098 23.5707 76.1404 22.152 76.8018 20.936C77.4844 19.72 78.4124 18.7707 79.5858 18.088C80.7804 17.384 82.1351 17.032 83.6498 17.032C84.7591 17.032 85.7511 17.2133 86.6258 17.576C87.5218 17.9387 88.2791 18.4613 88.8978 19.144C89.5378 19.8267 90.0178 20.6587 90.3378 21.64C90.6791 22.6 90.8498 23.688 90.8498 24.904C90.8498 25.288 90.7111 25.5867 90.4338 25.8C90.1778 25.992 89.8044 26.088 89.3138 26.088H79.0418V23.784H88.0338L87.5218 24.264C87.5218 23.2827 87.3724 22.4613 87.0738 21.8C86.7964 21.1387 86.3804 20.6373 85.8258 20.296C85.2924 19.9333 84.6204 19.752 83.8098 19.752C82.9138 19.752 82.1458 19.9653 81.5058 20.392C80.8871 20.7973 80.4071 21.384 80.0658 22.152C79.7458 22.8987 79.5858 23.7947 79.5858 24.84V25.064C79.5858 26.8133 79.9911 28.1253 80.8018 29C81.6338 29.8533 82.8498 30.28 84.4498 30.28C85.0044 30.28 85.6231 30.216 86.3058 30.088C87.0098 29.9387 87.6711 29.6933 88.2898 29.352C88.7378 29.096 89.1324 28.9893 89.4738 29.032C89.8151 29.0533 90.0818 29.1707 90.2738 29.384C90.4871 29.5973 90.6151 29.864 90.6578 30.184C90.7004 30.4827 90.6364 30.792 90.4658 31.112C90.3164 31.432 90.0498 31.7093 89.6658 31.944C88.9191 32.4133 88.0551 32.7653 87.0738 33C86.1138 33.2133 85.2178 33.32 84.3858 33.32ZM96.0655 33.256C95.4042 33.256 94.8922 33.0853 94.5295 32.744C94.1882 32.3813 94.0175 31.8693 94.0175 31.208V19.112C94.0175 18.4507 94.1882 17.9493 94.5295 17.608C94.8708 17.2667 95.3508 17.096 95.9695 17.096C96.5882 17.096 97.0682 17.2667 97.4095 17.608C97.7508 17.9493 97.9215 18.4507 97.9215 19.112V21.128H97.6015C97.9002 19.848 98.4868 18.8773 99.3615 18.216C100.236 17.5547 101.399 17.16 102.85 17.032C103.298 16.9893 103.65 17.1067 103.906 17.384C104.183 17.64 104.343 18.0453 104.386 18.6C104.428 19.1333 104.3 19.5707 104.002 19.912C103.724 20.232 103.298 20.424 102.722 20.488L102.018 20.552C100.716 20.68 99.7348 21.0853 99.0735 21.768C98.4122 22.4293 98.0815 23.368 98.0815 24.584V31.208C98.0815 31.8693 97.9108 32.3813 97.5695 32.744C97.2282 33.0853 96.7268 33.256 96.0655 33.256ZM114.869 33.256C114.293 33.256 113.823 33.1173 113.461 32.84C113.119 32.5627 112.842 32.1253 112.629 31.528L105.941 12.616C105.706 11.9333 105.749 11.3573 106.069 10.888C106.41 10.4187 106.975 10.184 107.765 10.184C108.341 10.184 108.789 10.3227 109.109 10.6C109.429 10.856 109.685 11.272 109.877 11.848L115.637 28.936H114.357L120.373 11.88C120.586 11.304 120.853 10.8773 121.173 10.6C121.493 10.3227 121.909 10.184 122.421 10.184C122.933 10.184 123.338 10.3227 123.637 10.6C123.935 10.8773 124.191 11.3147 124.405 11.912L130.229 28.936H129.109L134.965 11.848C135.157 11.2933 135.413 10.8773 135.733 10.6C136.053 10.3227 136.49 10.184 137.045 10.184C137.727 10.184 138.229 10.4187 138.549 10.888C138.869 11.3573 138.911 11.9333 138.677 12.616L131.925 31.56C131.711 32.136 131.434 32.5627 131.093 32.84C130.751 33.1173 130.293 33.256 129.717 33.256C129.141 33.256 128.682 33.1173 128.341 32.84C127.999 32.5627 127.722 32.1253 127.509 31.528L121.941 15.656H122.677L117.045 31.56C116.831 32.136 116.554 32.5627 116.213 32.84C115.893 33.1173 115.445 33.256 114.869 33.256ZM145.42 33.32C144.289 33.32 143.276 33.1067 142.38 32.68C141.505 32.232 140.812 31.6347 140.299 30.888C139.809 30.1413 139.564 29.2987 139.564 28.36C139.564 27.208 139.862 26.3013 140.46 25.64C141.057 24.9573 142.028 24.4667 143.372 24.168C144.716 23.8693 146.518 23.72 148.78 23.72H150.38V26.024H148.812C147.489 26.024 146.433 26.088 145.644 26.216C144.854 26.344 144.289 26.568 143.948 26.888C143.628 27.1867 143.468 27.6133 143.468 28.168C143.468 28.872 143.713 29.448 144.204 29.896C144.694 30.344 145.377 30.568 146.252 30.568C146.956 30.568 147.574 30.408 148.108 30.088C148.662 29.7467 149.1 29.288 149.42 28.712C149.74 28.136 149.9 27.4747 149.9 26.728V23.048C149.9 21.9813 149.665 21.2133 149.196 20.744C148.726 20.2747 147.937 20.04 146.828 20.04C146.209 20.04 145.537 20.1147 144.812 20.264C144.108 20.4133 143.361 20.6693 142.572 21.032C142.166 21.224 141.804 21.2773 141.484 21.192C141.185 21.1067 140.95 20.936 140.78 20.68C140.609 20.4027 140.524 20.104 140.524 19.784C140.524 19.464 140.609 19.1547 140.78 18.856C140.95 18.536 141.238 18.3013 141.644 18.152C142.625 17.7467 143.564 17.4587 144.46 17.288C145.377 17.1173 146.209 17.032 146.956 17.032C148.492 17.032 149.75 17.2667 150.732 17.736C151.734 18.2053 152.481 18.92 152.972 19.88C153.462 20.8187 153.708 22.0347 153.708 23.528V31.208C153.708 31.8693 153.548 32.3813 153.228 32.744C152.908 33.0853 152.449 33.256 151.852 33.256C151.254 33.256 150.785 33.0853 150.444 32.744C150.124 32.3813 149.964 31.8693 149.964 31.208V29.672H150.22C150.07 30.4187 149.772 31.0693 149.324 31.624C148.897 32.1573 148.353 32.5733 147.692 32.872C147.03 33.1707 146.273 33.32 145.42 33.32ZM164.936 33.32C163.549 33.32 162.386 33.0853 161.448 32.616C160.53 32.1467 159.848 31.464 159.4 30.568C158.952 29.6507 158.728 28.52 158.728 27.176V20.36H157.064C156.552 20.36 156.157 20.232 155.88 19.976C155.602 19.6987 155.463 19.3253 155.463 18.856C155.463 18.3653 155.602 17.992 155.88 17.736C156.157 17.48 156.552 17.352 157.064 17.352H158.728V14.44C158.728 13.7787 158.898 13.2773 159.24 12.936C159.602 12.5947 160.104 12.424 160.744 12.424C161.384 12.424 161.874 12.5947 162.216 12.936C162.557 13.2773 162.728 13.7787 162.728 14.44V17.352H166.12C166.632 17.352 167.026 17.48 167.304 17.736C167.581 17.992 167.72 18.3653 167.72 18.856C167.72 19.3253 167.581 19.6987 167.304 19.976C167.026 20.232 166.632 20.36 166.12 20.36H162.728V26.952C162.728 27.976 162.952 28.744 163.4 29.256C163.848 29.768 164.573 30.024 165.576 30.024C165.938 30.024 166.258 29.992 166.536 29.928C166.813 29.864 167.058 29.8213 167.272 29.8C167.528 29.7787 167.741 29.864 167.912 30.056C168.082 30.2267 168.168 30.5893 168.168 31.144C168.168 31.5707 168.093 31.9547 167.944 32.296C167.816 32.616 167.57 32.84 167.208 32.968C166.93 33.0533 166.568 33.128 166.12 33.192C165.672 33.2773 165.277 33.32 164.936 33.32ZM177.125 33.32C175.482 33.32 174.053 32.9893 172.837 32.328C171.621 31.6453 170.682 30.6853 170.021 29.448C169.359 28.2107 169.029 26.76 169.029 25.096C169.029 23.8373 169.21 22.7173 169.573 21.736C169.957 20.7333 170.501 19.8907 171.205 19.208C171.909 18.504 172.762 17.9707 173.765 17.608C174.767 17.224 175.887 17.032 177.125 17.032C177.829 17.032 178.586 17.128 179.397 17.32C180.229 17.512 181.007 17.832 181.733 18.28C182.074 18.4933 182.298 18.7493 182.405 19.048C182.511 19.3467 182.533 19.656 182.469 19.976C182.405 20.2747 182.266 20.5413 182.053 20.776C181.861 20.9893 181.615 21.128 181.317 21.192C181.018 21.2347 180.687 21.16 180.325 20.968C179.855 20.6907 179.375 20.488 178.885 20.36C178.394 20.2107 177.925 20.136 177.477 20.136C176.773 20.136 176.154 20.2533 175.621 20.488C175.087 20.7013 174.629 21.0213 174.245 21.448C173.882 21.8533 173.605 22.3653 173.413 22.984C173.221 23.6027 173.125 24.3173 173.125 25.128C173.125 26.7067 173.498 27.9547 174.245 28.872C175.013 29.768 176.09 30.216 177.477 30.216C177.925 30.216 178.383 30.152 178.853 30.024C179.343 29.896 179.834 29.6933 180.325 29.416C180.687 29.224 181.007 29.16 181.285 29.224C181.583 29.288 181.829 29.4373 182.021 29.672C182.213 29.8853 182.33 30.152 182.373 30.472C182.415 30.7707 182.373 31.0693 182.245 31.368C182.138 31.6667 181.925 31.912 181.605 32.104C180.901 32.5307 180.154 32.84 179.365 33.032C178.575 33.224 177.829 33.32 177.125 33.32ZM186.97 33.256C186.33 33.256 185.84 33.0853 185.498 32.744C185.157 32.3813 184.986 31.8693 184.986 31.208V12.2C184.986 11.5387 185.157 11.0373 185.498 10.696C185.84 10.3547 186.33 10.184 186.97 10.184C187.61 10.184 188.101 10.3547 188.442 10.696C188.805 11.0373 188.986 11.5387 188.986 12.2V20.488H188.538C189.008 19.3573 189.733 18.504 190.714 17.928C191.717 17.3307 192.848 17.032 194.106 17.032C195.365 17.032 196.4 17.2667 197.21 17.736C198.021 18.2053 198.629 18.92 199.034 19.88C199.44 20.8187 199.642 22.0133 199.642 23.464V31.208C199.642 31.8693 199.472 32.3813 199.13 32.744C198.789 33.0853 198.298 33.256 197.658 33.256C197.018 33.256 196.517 33.0853 196.154 32.744C195.813 32.3813 195.642 31.8693 195.642 31.208V23.656C195.642 22.44 195.408 21.5547 194.938 21C194.49 20.4453 193.786 20.168 192.826 20.168C191.653 20.168 190.714 20.5413 190.01 21.288C189.328 22.0133 188.986 22.984 188.986 24.2V31.208C188.986 32.5733 188.314 33.256 186.97 33.256Z" fill="#F7F6F0"/>
<path d="M43.9943 22.7895C43.085 22.268 42.1767 21.7834 41.3043 21.2384C40.3206 20.6241 39.4131 19.9054 38.7563 18.92C38.2113 18.1019 37.995 17.2222 38.3951 16.2554C38.8848 15.0739 39.9037 14.4732 41.2494 14.5788C41.5165 14.5993 41.8207 14.7463 42.0367 14.6552C42.2537 14.5647 42.3723 14.2423 42.5502 14.0361C43.6306 12.7801 45.2473 12.5952 46.3899 13.6063C47.0904 14.2258 47.2986 15.0734 47.3449 15.9749C47.4086 17.2213 47.1659 18.4318 46.8242 19.6226C46.6207 20.3299 46.3693 21.0234 46.1411 21.7228C46.1239 21.7755 46.1121 21.8305 46.1421 21.9044C46.3375 21.518 46.5264 21.129 46.7284 20.748C47.354 19.5653 48.0443 18.4257 48.9518 17.4365C49.439 16.9066 49.9739 16.4359 50.643 16.1523C52.3622 15.4232 54.1344 16.5274 54.2375 18.408C54.2573 18.7746 54.2083 19.1499 54.1508 19.5151C54.1171 19.7275 54.1523 19.8466 54.3314 19.9694C55.0546 20.4629 55.6043 21.0981 55.7575 22.0032C55.966 23.2365 55.2212 24.4899 54.0349 24.9247C53.0467 25.287 52.0375 25.243 51.0297 25.0993C49.7474 24.9163 48.5097 24.5555 47.2969 24.1087C47.1911 24.0692 47.0837 24.0302 46.9541 24.0379C47.3509 24.2436 47.7506 24.4427 48.1446 24.655C49.4614 25.3659 50.7309 26.1466 51.7452 27.2767C52.2985 27.8912 52.7311 28.5797 52.7659 29.4478C52.8265 30.9612 51.6604 32.1783 50.1158 32.214C49.8 32.2211 49.4808 32.185 49.1699 32.129C48.9707 32.093 48.8568 32.1359 48.7447 32.3074C48.3973 32.8417 47.9546 33.2785 47.3838 33.5685C46.1289 34.2048 44.5284 33.6332 43.9577 32.3508C43.5767 31.4952 43.5455 30.5882 43.6498 29.6748C43.7349 28.9396 43.8844 28.2121 44.0045 27.4877C43.8497 27.8535 43.687 28.2289 43.5309 28.6071C42.9226 30.0928 42.2434 31.5382 41.2464 32.8112C40.0639 34.3237 38.5382 35.3587 36.8507 36.1546C36.6667 35.6781 36.4889 35.2173 36.2965 34.7216C36.5901 34.6009 36.9271 34.4621 37.2647 34.3222C39.2871 33.483 40.8284 32.0702 41.965 30.1957C42.4887 29.3321 42.9577 28.4349 43.4486 27.5522C43.491 27.4763 43.518 27.3913 43.5733 27.33C43.0493 28.0072 42.5469 28.7027 41.9951 29.3551C41.5113 29.9282 40.9275 30.3938 40.2284 30.679C38.6224 31.3336 36.8689 30.2425 36.73 28.4888C36.6986 28.0951 36.7491 27.6892 36.8002 27.2939C36.8274 27.0787 36.818 26.9471 36.6187 26.8146C36.3579 26.6404 36.1149 26.4242 35.9036 26.1902C34.4842 24.6204 35.2266 22.2533 37.2907 21.7471C38.3309 21.4915 39.3733 21.5443 40.3913 21.7757C41.4676 22.0201 42.5228 22.3597 43.5862 22.6585C43.7151 22.6948 43.8403 22.74 43.9884 22.7883L43.9943 22.7895Z" fill="#F7F6F0"/>
</svg>
